# File created by Blade
# Date/Time:  Thu Sep 25 15:41:58 2014
# Frame Rate: 120.000 fps
#------------------------------------------------------
:FULLY-SPECIFIED
:DEGREES
253
root 26.416536 32.743007 -1.539582 160.127706 -77.299573 -137.473919
Spine 6.672094 12.721637 5.447292
Head -10.337235 -3.175910 4.539033
LeftShoulder -0.152304 18.568225 13.458091
LeftArm 42.345591 32.619194 -57.700168
LeftForeArm 4.401244 0.000000 21.943174
LeftHand -28.453392 -0.000000 13.476578
LeftHandThumb1 -26.253704 0.000000 33.147579
RightShoulder -5.662097 17.793438 -22.054835
RightArm 9.343831 -41.841336 84.926432
RightForeArm -23.810711 -0.000000 17.237932
RightHand -3.292106 -0.000000 4.797093
RightHandThumb1 -24.326973 -0.000000 -32.862282
LeftUpLeg -56.842747 9.439340 3.509757
LeftLeg 13.582371 -0.000000 -0.000000
LeftFoot 26.207909 27.155737 -19.368725
LeftToeBase 20.668067 -0.000000 -0.000000
RightUpLeg -21.720872 -6.753279 16.895445
RightLeg 4.145691 -0.000000 -0.000000
RightFoot -8.958941 -4.140564 -5.569448
RightToeBase 1.465066 -0.000000 -0.000000
254
root 26.461763 32.739469 -1.564003 160.640419 -77.103933 -137.821943
Spine 6.702126 12.850918 5.386928
Head -10.556383 -3.018726 4.648905
LeftShoulder -0.114233 18.516491 13.494632
LeftArm 42.366184 32.725678 -57.676256
LeftForeArm 4.306606 -0.000000 21.823668
LeftHand -28.524208 -0.000000 13.236794
LeftHandThumb1 -26.253704 0.000000 33.147579
RightShoulder -5.519194 17.846848 -21.913811
RightArm 9.515257 -41.685152 84.902302
RightForeArm -23.940636 -0.000000 17.271760
RightHand -3.480636 -0.000000 4.438428
RightHandThumb1 -24.326973 -0.000000 -32.862282
LeftUpLeg -56.899929 9.638767 3.386562
LeftLeg 12.636214 -0.000000 -0.000000
LeftFoot 27.494488 27.383545 -19.112269
LeftToeBase 20.822193 -0.000000 -0.000000
RightUpLeg -21.940030 -6.581790 17.011270
RightLeg 4.192027 -0.000000 -0.000000
RightFoot -8.904129 -4.029854 -5.609794
RightToeBase 1.615605 -0.000000 -0.000000
255
root 26.504624 32.735471 -1.584828 160.945015 -76.974879 -137.981493
Spine 6.770975 12.885857 5.381328
Head -10.791162 -2.895352 4.714560
LeftShoulder -0.093545 18.472585 13.466306
LeftArm 42.439859 32.847946 -57.592339
LeftForeArm 4.217863 -0.000000 21.693103
LeftHand -28.626024 -0.000000 13.286973
LeftHandThumb1 -26.253704 0.000000 33.147579
RightShoulder -5.433403 17.987852 -21.866360
RightArm 9.658849 -41.650406 84.956138
RightForeArm -23.861043 -0.000000 17.244156
RightHand -3.480689 -0.000000 4.778767
RightHandThumb1 -24.326973 -0.000000 -32.862282
LeftUpLeg -56.977436 9.787415 3.206922
LeftLeg 11.816001 -0.000000 -0.000000
LeftFoot 28.762109 27.563047 -18.517093
LeftToeBase 21.680348 -0.000000 -0.000000
RightUpLeg -22.133865 -6.499326 17.134832
RightLeg 4.202204 -0.000000 -0.000000
RightFoot -8.819616 -3.927793 -5.691305
RightToeBase 1.529139 -0.000000 -0.000000
256
root 26.544484 32.730319 -1.605051 161.265544 -76.828194 -138.177783
Spine 6.864732 12.935727 5.367877
Head -11.041345 -2.764666 4.789640
LeftShoulder -0.084104 18.533466 13.448143
LeftArm 42.591231 32.853065 -57.485982
LeftForeArm 4.056338 -0.000000 21.602021
LeftHand -28.683812 -0.000000 13.117413
LeftHandThumb1 -26.253704 0.000000 33.147579
RightShoulder -5.315854 18.056291 -21.762489
RightArm 9.900699 -41.613783 84.898329
RightForeArm -23.874295 -0.000000 17.213622
RightHand -3.364175 -0.000000 4.713645
RightHandThumb1 -24.326973 -0.000000 -32.862282
LeftUpLeg -57.039272 9.973645 3.004558
LeftLeg 11.064584 -0.000000 -0.000000
LeftFoot 29.792999 27.736413 -18.279056
LeftToeBase 22.455301 -0.000000 -0.000000
RightUpLeg -22.298242 -6.359533 17.237494
RightLeg 4.213522 -0.000000 -0.000000
RightFoot -8.755183 -3.906240 -5.796472
RightToeBase 1.502580 -0.000000 -0.000000
257
root 26.581399 32.725172 -1.625141 161.599313 -76.688308 -138.385072
Spine 6.946288 12.990457 5.339467
Head -11.241877 -2.599130 4.871417
LeftShoulder -0.016419 18.439126 13.455605
LeftArm 42.553083 32.969244 -57.493749
LeftForeArm 4.036398 0.000000 21.482453
LeftHand -28.575251 0.000000 13.279552
LeftHandThumb1 -26.253704 0.000000 33.147579
RightShoulder -5.191498 18.076307 -21.664670
RightArm 10.189137 -41.627724 84.792400
RightForeArm -23.947901 0.000000 17.228645
RightHand -3.525909 -0.000000 4.375518
RightHandThumb1 -24.326973 -0.000000 -32.862282
LeftUpLeg -57.142918 10.244483 2.651224
LeftLeg 10.428946 -0.000000 -0.000000
LeftFoot 30.629257 27.872812 -18.265229
LeftToeBase 22.288963 -0.000000 -0.000000
RightUpLeg -22.452944 -6.179556 17.312634
RightLeg 4.220224 -0.000000 -0.000000
RightFoot -8.705825 -3.933093 -5.899581
RightToeBase 1.496248 -0.000000 -0.000000
258
root 26.620633 32.721328 -1.642749 161.842393 -76.597658 -138.477198
Spine 7.019980 12.982416 5.341790
Head -11.475968 -2.481887 4.866840
LeftShoulder 0.019304 18.335683 13.415553
LeftArm 42.551203 33.046373 -57.470192
LeftForeArm 3.868014 -0.000000 21.367126
LeftHand -28.523442 0.000000 13.035485
LeftHandThumb1 -26.253704 0.000000 33.147579
RightShoulder -5.137169 18.196968 -21.605317
RightArm 10.382320 -41.644743 84.789114
RightForeArm -23.982104 -0.000000 17.210570
RightHand -3.444691 -0.000000 4.470087
RightHandThumb1 -24.326973 -0.000000 -32.862282
LeftUpLeg -57.300132 10.454884 2.280100
LeftLeg 9.949615 -0.000000 -0.000000
LeftFoot 31.506080 28.132373 -17.969938
LeftToeBase 24.416643 -0.000000 -0.000000
RightUpLeg -22.656765 -6.060520 17.403128
RightLeg 4.247559 -0.000000 -0.000000
RightFoot -8.637633 -3.938625 -6.009986
RightToeBase 1.393626 -0.000000 -0.000000
259
root 26.656635 32.715629 -1.660628 162.026091 -76.498705 -138.510432
Spine 7.083527 12.980395 5.357386
Head -11.697601 -2.381080 4.878354
LeftShoulder 0.083572 18.333895 13.392847
LeftArm 42.579690 33.081046 -57.437540
LeftForeArm 3.750413 -0.000000 21.304729
LeftHand -28.826188 -0.000000 13.139931
LeftHandThumb1 -26.253704 0.000000 33.147579
RightShoulder -5.009786 18.252528 -21.544998
RightArm 10.611568 -41.623972 84.733798
RightForeArm -23.991168 -0.000000 17.251277
RightHand -3.447274 -0.000000 4.643012
RightHandThumb1 -24.326973 -0.000000 -32.862282
LeftUpLeg -57.494918 10.741815 1.823061
LeftLeg 9.541309 -0.000000 -0.000000
LeftFoot 32.386158 28.378719 -18.004780
LeftToeBase 24.755299 -0.000000 -0.000000
RightUpLeg -22.861690 -5.918303 17.495189
RightLeg 4.306609 -0.000000 -0.000000
RightFoot -8.617309 -3.919227 -6.071749
RightToeBase 1.404100 -0.000000 -0.000000
260
root 26.688079 32.709605 -1.674010 162.199599 -76.413955 -138.553630
Spine 7.164699 12.961285 5.381471
Head -11.876447 -2.251486 4.897970
LeftShoulder 0.141258 18.289218 13.367672
LeftArm 42.628060 33.156130 -57.396538
LeftForeArm 3.540401 -0.000000 21.191563
LeftHand -28.890379 0.000000 12.871168
LeftHandThumb1 -26.253704 0.000000 33.147579
RightShoulder -4.864194 18.224717 -21.478797
RightArm 10.925878 -41.570559 84.612873
RightForeArm -24.028948 -0.000000 17.275323
RightHand -3.390930 0.000000 4.585885
RightHandThumb1 -24.326973 -0.000000 -32.862282
LeftUpLeg -57.687958 10.980236 1.366245
LeftLeg 9.241035 -0.000000 -0.000000
LeftFoot 33.207675 28.746500 -18.053378
LeftToeBase 25.075617 -0.000000 -0.000000
RightUpLeg -23.027600 -5.753661 17.554789
RightLeg 4.325439 -0.000000 -0.000000
RightFoot -8.558200 -3.969263 -6.187716
RightToeBase 1.341173 -0.000000 -0.000000
261
root 26.715872 32.701073 -1.691995 162.128675 -76.329538 -138.396710
Spine 7.310786 12.922875 5.469603
Head -12.089445 -2.177307 4.862876
LeftShoulder 0.231750 18.173854 13.365261
LeftArm 42.630144 33.309145 -57.386956
LeftForeArm 3.591944 -0.000000 20.972353
LeftHand -28.419957 -0.000000 13.044899
LeftHandThumb1 -26.253704 0.000000 33.147579
RightShoulder -4.813954 18.335228 -21.433429
RightArm 11.134980 -41.628103 84.560157
RightForeArm -24.081917 -0.000000 17.299061
RightHand -3.386429 -0.000000 4.593159
RightHandThumb1 -24.326973 -0.000000 -32.862282
LeftUpLeg -57.846805 11.282099 0.889275
LeftLeg 9.041551 -0.000000 -0.000000
LeftFoot 34.065163 28.516719 -17.973650
LeftToeBase 24.892304 -0.000000 -0.000000
RightUpLeg -23.150994 -5.651276 17.672942
RightLeg 4.356810 -0.000000 -0.000000
RightFoot -8.504482 -4.014728 -6.405338
RightToeBase 1.210405 -0.000000 -0.000000
262
root 26.743252 32.692473 -1.707643 162.156054 -76.257538 -138.342820
Spine 7.456115 12.886475 5.537926
Head -12.263369 -2.072588 4.791157
LeftShoulder 0.194410 18.406640 13.273469
LeftArm 43.195878 33.387803 -56.921395
LeftForeArm 3.357229 -0.000000 20.726334
LeftHand -28.482578 -0.000000 13.084793
LeftHandThumb1 -26.253704 0.000000 33.147579
RightShoulder -4.710564 18.406937 -21.405118
RightArm 11.387057 -41.720170 84.471785
RightForeArm -24.142915 -0.000000 17.331382
RightHand -3.504427 0.000000 4.638276
RightHandThumb1 -24.326973 -0.000000 -32.862282
LeftUpLeg -58.010117 11.542017 0.450824
LeftLeg 8.947127 -0.000000 -0.000000
LeftFoot 34.804086 28.277821 -17.872615
LeftToeBase 25.065825 -0.000000 -0.000000
RightUpLeg -23.280456 -5.501593 17.745681
RightLeg 4.424064 -0.000000 -0.000000
RightFoot -8.477314 -4.081347 -6.547367
RightToeBase 1.131088 -0.000000 -0.000000
